<?xml version="1.0" standalone="no"?>
<!DOCTYPE svg PUBLIC "-//W3C//DTD SVG 20010904//EN"
 "http://www.w3.org/TR/2001/REC-SVG-20010904/DTD/svg10.dtd">
<svg version="1.0" xmlns="http://www.w3.org/2000/svg"
 width="1080.000000pt" height="1080.000000pt" viewBox="0 0 1080.000000 1080.000000"
 preserveAspectRatio="xMidYMid meet">

<g transform="translate(0.000000,1080.000000) scale(0.100000,-0.100000)"
fill="#000000" stroke="none">
<path d="M4925 7499 c-104 -20 -154 -34 -162 -46 -10 -12 -13 -75 -13 -227 0
-172 -4 -228 -20 -301 -23 -107 -91 -251 -149 -317 l-41 -46 0 -690 0 -691 22
-15 c20 -14 116 -16 838 -16 722 0 818 2 838 16 l22 15 0 691 0 690 -41 46
c-58 66 -126 210 -149 317 -16 73 -20 129 -20 301 0 152 -3 215 -12 227 -9 12
-60 26 -177 48 -164 30 -165 30 -191 11 -132 -98 -305 -119 -444 -54 -37 17
-79 41 -93 52 -31 24 -22 25 -208 -11z m99 -170 c13 -140 76 -259 175 -330
242 -173 547 1 577 330 8 80 3 77 99 59 l63 -11 5 -211 c4 -175 8 -225 27
-291 28 -104 85 -224 144 -303 l46 -62 0 -625 0 -625 -760 0 -760 0 0 625 0
625 46 62 c128 174 174 342 174 639 l0 167 58 10 c105 18 98 21 106 -59z m196
14 c59 -25 76 -28 180 -28 119 0 118 0 258 62 19 8 15 -55 -9 -133 -17 -56
-31 -77 -78 -125 -59 -59 -102 -79 -171 -79 -69 0 -112 20 -171 79 -47 48 -61
69 -78 125 -24 78 -28 141 -8 133 6 -3 41 -18 77 -34z"/>
<path d="M5255 6642 c-45 -15 -104 -42 -132 -60 -64 -41 -167 -150 -190 -200
-9 -20 -19 -40 -21 -44 -2 -5 19 -8 46 -8 l49 0 42 64 c50 77 114 135 196 175
76 38 132 51 220 51 91 0 144 -13 230 -56 l70 -34 -34 30 c-73 63 -214 110
-329 110 -46 0 -92 -9 -147 -28z"/>
<path d="M5355 6576 c-69 -17 -136 -51 -182 -91 l-38 -34 75 39 c96 50 186 66
274 51 117 -21 211 -76 272 -161 34 -47 38 -50 81 -50 l44 0 -23 41 c-12 22
-45 62 -74 89 -114 108 -280 153 -429 116z"/>
<path d="M5278 6273 c-25 -4 -58 -35 -58 -55 0 -4 21 -8 48 -10 l47 -3 3 -102
3 -103 39 0 39 0 3 103 3 102 42 3 c31 2 48 10 63 29 11 14 17 29 14 34 -5 9
-192 10 -246 2z"/>
<path d="M5837 6243 c-13 -21 -36 -59 -51 -85 -15 -27 -33 -48 -39 -48 -7 1
-34 35 -62 78 -44 67 -54 77 -80 77 -32 0 -34 -4 -84 -169 -28 -94 -28 -96 18
-96 37 0 39 1 51 48 7 26 14 55 17 65 8 30 28 18 61 -38 36 -60 70 -89 95 -79
9 3 34 35 56 70 22 35 45 64 50 64 6 0 13 -12 17 -27 24 -106 22 -103 64 -103
26 0 40 5 40 13 -1 14 -25 114 -33 137 -3 8 -11 34 -17 57 -20 81 -65 96 -103
36z"/>
<path d="M4846 6245 c-44 -40 -30 -96 29 -121 22 -9 71 -14 134 -14 78 0 100
-3 105 -15 3 -8 -2 -22 -12 -31 -14 -14 -31 -16 -123 -10 l-107 6 -22 -30 -21
-30 150 0 c146 0 150 1 180 26 31 26 42 73 23 100 -24 35 -58 44 -158 44 -55
0 -103 3 -107 6 -3 3 -3 12 0 20 4 11 29 14 110 14 96 0 106 2 124 23 10 12
18 25 19 30 0 4 -67 7 -149 7 -143 0 -149 -1 -175 -25z"/>
<path d="M4916 5932 c-10 -16 56 -114 115 -172 41 -41 88 -73 146 -102 86 -43
87 -43 214 -46 110 -4 137 -1 193 18 72 24 166 81 210 129 39 41 27 39 -30 -4
-64 -49 -94 -63 -181 -86 -152 -38 -261 -22 -375 57 -71 48 -174 151 -189 186
-10 25 -17 28 -55 28 -23 0 -45 -4 -48 -8z"/>
<path d="M5767 5902 c-28 -43 -85 -97 -140 -131 -106 -65 -276 -67 -402 -4
l-30 14 23 -20 c63 -56 238 -86 351 -61 102 23 194 81 263 168 49 61 48 72 -2
72 -35 0 -43 -4 -63 -38z"/>
</g>
</svg>
