<?xml version="1.0" encoding="UTF-8"?>
<svg xmlns="http://www.w3.org/2000/svg" xmlns:xlink="http://www.w3.org/1999/xlink" width="300px" height="300px" viewBox="0 0 300 300" version="1.1">
<g id="surface1">
<path style=" stroke:none;fill-rule:nonzero;fill:rgb(0%,0%,0%);fill-opacity:1;" d="M 136.804688 91.699219 C 133.914062 92.246094 132.53125 92.636719 132.304688 92.96875 C 132.03125 93.300781 131.945312 95.058594 131.945312 99.277344 C 131.945312 104.054688 131.835938 105.617188 131.386719 107.636719 C 130.75 110.617188 128.859375 114.609375 127.246094 116.445312 L 126.113281 117.726562 L 126.113281 156.085938 L 126.71875 156.503906 C 127.273438 156.882812 129.941406 156.945312 150 156.945312 C 170.058594 156.945312 172.726562 156.882812 173.28125 156.503906 L 173.886719 156.085938 L 173.886719 117.726562 L 172.753906 116.445312 C 171.140625 114.609375 169.25 110.617188 168.613281 107.636719 C 168.164062 105.617188 168.054688 104.054688 168.054688 99.277344 C 168.054688 95.058594 167.96875 93.300781 167.726562 92.96875 C 167.46875 92.636719 166.054688 92.246094 162.804688 91.640625 C 158.25 90.8125 158.222656 90.8125 157.5 91.335938 C 153.835938 94.054688 149.023438 94.640625 145.164062 92.832031 C 144.140625 92.363281 142.96875 91.699219 142.585938 91.386719 C 141.71875 90.722656 141.972656 90.695312 136.804688 91.699219 Z M 139.5625 96.414062 C 139.921875 100.304688 141.671875 103.613281 144.414062 105.585938 C 151.140625 110.390625 159.609375 105.554688 160.4375 96.414062 C 160.664062 94.199219 160.527344 94.277344 163.195312 94.773438 L 164.941406 95.085938 L 165.085938 100.945312 C 165.195312 105.8125 165.304688 107.195312 165.828125 109.03125 C 166.609375 111.914062 168.195312 115.253906 169.835938 117.441406 L 171.113281 119.171875 L 171.113281 153.886719 L 128.886719 153.886719 L 128.886719 119.171875 L 130.164062 117.441406 C 133.71875 112.609375 135 107.9375 135 99.695312 L 135 95.058594 L 136.609375 94.773438 C 139.53125 94.277344 139.335938 94.199219 139.5625 96.414062 Z M 145 96.023438 C 146.640625 96.71875 147.109375 96.804688 150 96.804688 C 153.300781 96.804688 153.28125 96.804688 157.167969 95.085938 C 157.695312 94.863281 157.585938 96.609375 156.914062 98.78125 C 156.445312 100.332031 156.054688 100.917969 154.746094 102.246094 C 153.105469 103.886719 151.914062 104.445312 150 104.445312 C 148.085938 104.445312 146.894531 103.886719 145.253906 102.246094 C 143.945312 100.917969 143.554688 100.332031 143.085938 98.78125 C 142.414062 96.609375 142.304688 94.863281 142.859375 95.085938 C 143.027344 95.164062 144.003906 95.585938 145 96.023438 Z M 145 96.023438 "/>
<path style=" stroke:none;fill-rule:nonzero;fill:rgb(0%,0%,0%);fill-opacity:1;" d="M 145.96875 115.5 C 144.726562 115.917969 143.085938 116.671875 142.304688 117.167969 C 140.527344 118.300781 137.664062 121.335938 137.03125 122.726562 C 136.777344 123.28125 136.503906 123.835938 136.445312 123.945312 C 136.386719 124.082031 136.972656 124.171875 137.726562 124.171875 L 139.082031 124.171875 L 140.253906 122.390625 C 141.640625 120.253906 143.417969 118.640625 145.695312 117.53125 C 147.804688 116.476562 149.355469 116.113281 151.804688 116.113281 C 154.335938 116.113281 155.800781 116.476562 158.195312 117.664062 L 160.136719 118.613281 L 159.199219 117.773438 C 157.167969 116.023438 153.25 114.726562 150.058594 114.726562 C 148.78125 114.726562 147.5 114.96875 145.96875 115.5 Z M 145.96875 115.5 "/>
<path style=" stroke:none;fill-rule:nonzero;fill:rgb(0%,0%,0%);fill-opacity:1;" d="M 148.75 117.335938 C 146.835938 117.804688 144.96875 118.75 143.691406 119.863281 L 142.636719 120.8125 L 144.726562 119.71875 C 147.390625 118.328125 149.890625 117.890625 152.335938 118.300781 C 155.585938 118.886719 158.195312 120.421875 159.890625 122.773438 C 160.828125 124.082031 160.945312 124.171875 162.140625 124.171875 L 163.359375 124.171875 L 162.726562 123.027344 C 162.390625 122.414062 161.476562 121.308594 160.664062 120.554688 C 157.5 117.558594 152.890625 116.308594 148.75 117.335938 Z M 148.75 117.335938 "/>
<path style=" stroke:none;fill-rule:nonzero;fill:rgb(0%,0%,0%);fill-opacity:1;" d="M 146.609375 125.75 C 145.917969 125.859375 145 126.71875 145 127.273438 C 145 127.390625 145.585938 127.5 146.335938 127.558594 L 147.636719 127.636719 L 147.726562 130.46875 L 147.804688 133.328125 L 149.96875 133.328125 L 150.058594 130.46875 L 150.136719 127.636719 L 151.308594 127.558594 C 152.167969 127.5 152.636719 127.273438 153.054688 126.75 C 153.359375 126.359375 153.523438 125.945312 153.445312 125.800781 C 153.300781 125.554688 148.117188 125.527344 146.609375 125.75 Z M 146.609375 125.75 "/>
<path style=" stroke:none;fill-rule:nonzero;fill:rgb(0%,0%,0%);fill-opacity:1;" d="M 162.140625 126.582031 C 161.777344 127.167969 161.140625 128.222656 160.722656 128.945312 C 160.304688 129.695312 159.804688 130.273438 159.640625 130.273438 C 159.445312 130.253906 158.691406 129.304688 157.921875 128.117188 C 156.6875 126.25 156.414062 125.976562 155.695312 125.976562 C 154.804688 125.976562 154.746094 126.085938 153.359375 130.664062 C 152.578125 133.28125 152.578125 133.328125 153.859375 133.328125 C 154.890625 133.328125 154.941406 133.300781 155.273438 132 C 155.46875 131.28125 155.664062 130.46875 155.75 130.195312 C 155.976562 129.367188 156.523438 129.695312 157.441406 131.25 C 158.445312 132.921875 159.382812 133.71875 160.078125 133.445312 C 160.332031 133.359375 161.023438 132.46875 161.640625 131.503906 C 162.246094 130.527344 162.890625 129.726562 163.027344 129.726562 C 163.195312 129.726562 163.390625 130.058594 163.496094 130.46875 C 164.171875 133.417969 164.109375 133.328125 165.28125 133.328125 C 165.996094 133.328125 166.386719 133.195312 166.386719 132.96875 C 166.359375 132.585938 165.695312 129.804688 165.46875 129.171875 C 165.390625 128.945312 165.164062 128.222656 165 127.585938 C 164.445312 125.332031 163.195312 124.921875 162.140625 126.582031 Z M 162.140625 126.582031 "/>
<path style=" stroke:none;fill-rule:nonzero;fill:rgb(0%,0%,0%);fill-opacity:1;" d="M 134.609375 126.523438 C 133.390625 127.636719 133.78125 129.199219 135.421875 129.890625 C 136.023438 130.136719 137.390625 130.273438 139.140625 130.273438 C 141.308594 130.273438 141.914062 130.359375 142.050781 130.695312 C 142.140625 130.917969 142 131.308594 141.71875 131.554688 C 141.328125 131.945312 140.859375 132 138.300781 131.835938 L 135.332031 131.671875 L 134.71875 132.5 L 134.140625 133.328125 L 138.300781 133.328125 C 142.363281 133.328125 142.46875 133.300781 143.3125 132.609375 C 144.171875 131.894531 144.472656 130.585938 143.945312 129.835938 C 143.28125 128.859375 142.335938 128.613281 139.5625 128.613281 C 138.027344 128.613281 136.699219 128.523438 136.582031 128.445312 C 136.503906 128.359375 136.503906 128.117188 136.582031 127.890625 C 136.699219 127.585938 137.390625 127.5 139.640625 127.5 C 142.304688 127.5 142.585938 127.441406 143.085938 126.855469 C 143.359375 126.523438 143.585938 126.164062 143.613281 126.023438 C 143.613281 125.917969 141.75 125.828125 139.472656 125.828125 C 135.5 125.828125 135.332031 125.859375 134.609375 126.523438 Z M 134.609375 126.523438 "/>
<path style=" stroke:none;fill-rule:nonzero;fill:rgb(0%,0%,0%);fill-opacity:1;" d="M 136.554688 135.226562 C 136.28125 135.664062 138.105469 138.390625 139.746094 140 C 140.890625 141.140625 142.195312 142.03125 143.808594 142.832031 C 146.191406 144.023438 146.21875 144.023438 149.746094 144.109375 C 152.804688 144.21875 153.554688 144.140625 155.109375 143.613281 C 157.109375 142.949219 159.726562 141.359375 160.945312 140.03125 C 162.03125 138.886719 161.699219 138.945312 160.109375 140.136719 C 158.328125 141.503906 157.5 141.882812 155.085938 142.53125 C 150.859375 143.585938 147.832031 143.144531 144.667969 140.945312 C 142.695312 139.609375 139.835938 136.75 139.414062 135.78125 C 139.140625 135.085938 138.945312 135 137.890625 135 C 137.246094 135 136.640625 135.109375 136.554688 135.226562 Z M 136.554688 135.226562 "/>
<path style=" stroke:none;fill-rule:nonzero;fill:rgb(0%,0%,0%);fill-opacity:1;" d="M 160.195312 136.054688 C 159.414062 137.246094 157.832031 138.75 156.308594 139.695312 C 153.359375 141.503906 148.640625 141.554688 145.136719 139.804688 L 144.304688 139.414062 L 144.941406 139.96875 C 146.699219 141.523438 151.554688 142.363281 154.695312 141.671875 C 157.53125 141.023438 160.078125 139.414062 162 137 C 163.359375 135.304688 163.328125 135 161.945312 135 C 160.96875 135 160.75 135.109375 160.195312 136.054688 Z M 160.195312 136.054688 "/>
</g>
</svg>
